<svg xmlns="http://www.w3.org/2000/svg" viewBox="0 0 64 64"><rect width="30" height="58" x="17" y="3" fill="#333533" rx="3.11"/><path fill="#ffdd3e" d="M32 21a11 11 0 0 0-7.78 3.22l2.13 2.13a8 8 0 0 1 11.3 0l2.13-2.13A11 11 0 0 0 32 21Z"/><path fill="#fff" d="M21 58h4a1 1 0 0 0 0-2h-4a1 1 0 0 0 0 2Z"/><circle cx="29" cy="57" r="1" fill="#fff"/><circle cx="32" cy="6" r="1" fill="#262826"/><path fill="#262826" d="M48 11h-1v8h1a1 1 0 0 0 1-1v-6a1 1 0 0 0-1-1zm0 12h-1v5h1a1 1 0 0 0 1-1v-3a1 1 0 0 0-1-1z"/><path fill="#deb100" d="M43 37h-2v-5a8.16 8.16 0 0 0-2.64-6.36l1.42-1.42A10.13 10.13 0 0 1 43 32zm-22 0h2v-5a8.16 8.16 0 0 1 2.64-6.36l-1.42-1.42A10.13 10.13 0 0 0 21 32z"/><path fill="#c1c1c1" d="M22 35h2v6h-2a1 1 0 0 1-1-1v-4a1 1 0 0 1 1-1Z"/><path fill="#e6e6e6" d="M27.45 34.28v8a.73.73 0 0 1-.68.76h-2.05a.73.73 0 0 1-.69-.76v-8a.73.73 0 0 1 .69-.76h2.05a.73.73 0 0 1 .68.76Z"/><path fill="#c1c1c1" d="M42 41h-2v-6h2a1 1 0 0 1 1 1v4a1 1 0 0 1-1 1Z"/><path fill="#e6e6e6" d="M36.55 34.28v8a.73.73 0 0 0 .68.76h2.05a.73.73 0 0 0 .69-.76v-8a.73.73 0 0 0-.69-.76h-2.05a.73.73 0 0 0-.68.76Z"/></svg>